<svg xmlns="http://www.w3.org/2000/svg" viewBox="0 0 320 320" role="img" aria-labelledby="title desc">
  <title id="title">He Cao profile monogram</title>
  <desc id="desc">A clean HC monogram with a molecular network motif.</desc>
  <rect width="320" height="320" rx="24" fill="#f5f7fb"/>
  <circle cx="80" cy="82" r="12" fill="#0f766e"/>
  <circle cx="238" cy="96" r="10" fill="#b45309"/>
  <circle cx="252" cy="222" r="13" fill="#2563eb"/>
  <circle cx="76" cy="226" r="10" fill="#a21caf"/>
  <path d="M92 88 150 132M170 136 229 101M87 222 148 188M171 187 240 217" fill="none" stroke="#9aa6b2" stroke-width="5" stroke-linecap="round"/>
  <path d="M88 117v87h24v-35h38v35h24v-87h-24v32h-38v-32H88Zm150 64c-10 12-22 18-37 18-23 0-40-17-40-42s17-42 40-42c15 0 27 6 36 17l17-16c-13-16-31-24-54-24-39 0-67 27-67 65s28 65 67 65c23 0 42-8 55-25l-17-16Z" fill="#172033"/>
</svg>
